<svg xmlns="http://www.w3.org/2000/svg" xmlns:xlink="http://www.w3.org/1999/xlink" version="1.1" width="1000" height="1000" viewBox="0 0 1000 1000" xml:space="preserve">
<desc>Created with Fabric.js 3.5.0</desc>
<defs>
</defs>
<rect x="0" y="0" width="100%" height="100%" fill="rgba(255,255,255,0)"/>
<g transform="matrix(0.9091 0 0 0.8413 90.455 154.9256)" id="339409">
<rect style="stroke: none; stroke-width: 0; stroke-dasharray: none; stroke-linecap: butt; stroke-dashoffset: 0; stroke-linejoin: miter; stroke-miterlimit: 4; is-custom-font: none; font-file-url: none; fill: rgb(102,51,102); fill-opacity: 0; fill-rule: nonzero; opacity: 1;" x="-50" y="-50" rx="0" ry="0" width="100" height="100"/>
</g>
<g transform="matrix(18.8379 0 0 17.4325 478.4513 499.9998)" id="628247">
<polygon style="stroke: none; stroke-width: 0; stroke-dasharray: none; stroke-linecap: butt; stroke-dashoffset: 0; stroke-linejoin: miter; stroke-miterlimit: 4; is-custom-font: none; font-file-url: none; fill: rgb(172,106,255); fill-rule: nonzero; opacity: 1;" points="15.213,-8.499 15.206,-13.712 5.586,-20 5.586,-15.978 11.931,-11.8 11.936,-8.598 8.988,-6.602 6.977,-8.069 6.977,-10.554 3.7,-12.796 3.7,-8.273 -1.495,-5.085 -1.505,3.335 -5.178,5.403 -7.063,3.926 -7.063,1.488 -4.831,-0.041 -4.831,-0.061 -4.831,-3.834 -8.848,-1.146 -11.919,-3.144 -14.724,-1.307 -10.341,1.694 -10.341,3.536 -13.5,5.674 -16.723,3.492 -16.723,-3.77 -11.938,-7.009 -11.934,-10.125 -5.797,-6.173 -0.639,-9.606 -3.784,-11.441 -5.841,-10.053 -10.323,-13.017 -5.269,-15.964 -0.89,-13.397 -0.89,-17.225 -5.264,-19.789 -15.206,-13.992 -15.213,-8.777 -20,-5.535 -20,5.257 -15.213,8.499 -15.206,13.714 -5.586,20 -5.586,15.981 -11.931,11.803 -11.936,8.601 -8.988,6.605 -6.977,8.072 -6.977,10.557 -3.7,12.798 -3.7,8.275 1.569,5.088 1.628,-3.333 5.178,-5.401 7.063,-3.924 7.063,-1.486 4.831,0.043 4.831,0.063 4.831,3.837 8.848,1.148 11.919,3.146 14.724,1.309 10.34,-1.694 10.34,-3.534 13.5,-5.671 16.723,-3.489 16.723,3.772 11.939,7.012 11.934,10.127 5.797,6.173 0.639,9.584 3.784,11.416 5.841,10.055 10.323,13.019 5.269,15.966 0.89,13.399 0.89,17.225 5.264,19.789 15.206,13.995 15.213,8.779 20,5.537 20,-5.257 "/>
</g>
<g transform="matrix(0.9091 0 0 0.8413 -1169.9256 -1283.287)" id="398182">
<path style="stroke: none; stroke-width: 0; stroke-dasharray: none; stroke-linecap: butt; stroke-dashoffset: 0; stroke-linejoin: miter; stroke-miterlimit: 4; is-custom-font: none; font-file-url: none; fill: rgb(255,255,255); fill-rule: nonzero; opacity: 1;" transform=" translate(138.18, 4.3)" d="M -155.64 37.7 L -155.64 -46.3 L -120.72 -46.3 L -120.72 -34.3 L -142.44 -34.3 L -142.44 -10.9 L -125.4 -10.9 L -125.4 1.1 L -142.44 1.1 L -142.44 37.7 L -155.64 37.7 Z" stroke-linecap="round"/>
</g>
</svg>